<svg width="21" height="21" viewBox="0 0 21 21" fill="none" xmlns="http://www.w3.org/2000/svg">
<path d="M11.751 8.63379C11.2772 8.63379 10.9102 9.00088 10.9102 9.4541C10.9102 9.90732 11.2772 10.2744 11.751 10.2744C12.1837 10.2744 12.5508 9.90732 12.5508 9.4541C12.5508 9.00088 12.1837 8.63379 11.751 8.63379ZM6.00879 8.63379C5.53506 8.63379 5.16797 9.00088 5.16797 9.4541C5.16797 9.90732 5.53506 10.2744 6.00879 10.2744C6.4415 10.2744 6.80859 9.90732 6.80859 9.4541C6.80859 9.00088 6.4415 8.63379 6.00879 8.63379Z" fill="white"/>
<path d="M18.3337 7.07514C17.3473 5.72162 15.9692 4.81723 14.4577 4.40912V4.41117C14.107 4.02152 13.7112 3.66264 13.2683 3.34271C9.91115 0.902285 5.19846 1.64672 2.74777 5.00385C0.772871 7.73139 0.856953 11.4002 2.87082 14.0068L2.88723 16.7261C2.88723 16.7917 2.89748 16.8574 2.91799 16.9189C3.02668 17.2655 3.39582 17.4562 3.74035 17.3475L6.33664 16.5292C7.02365 16.7733 7.73322 16.9127 8.43869 16.9517L8.42844 16.9599C10.2557 18.2909 12.651 18.6908 14.8474 17.9648L17.4539 18.8138C17.5196 18.8343 17.5872 18.8466 17.657 18.8466C18.0199 18.8466 18.3132 18.5534 18.3132 18.1904V15.4423C20.1199 12.9896 20.1671 9.59965 18.3337 7.07514ZM6.62375 15.0732L6.37766 14.9706L4.34738 15.6064L4.32687 13.4736L4.16281 13.289C2.42785 11.1726 2.31301 8.12309 3.93723 5.88568C5.91418 3.17455 9.70402 2.57572 12.407 4.53217C15.1181 6.50297 15.719 10.2867 13.7605 12.9814C12.1178 15.2352 9.17697 16.0678 6.62375 15.0732ZM16.9802 14.7246L16.8161 14.9296L16.8366 17.0624L14.8269 16.3857L14.5808 16.4882C13.4323 16.9148 12.208 16.9496 11.0739 16.6318L11.0698 16.6297C12.5854 16.1642 13.9594 15.2208 14.9499 13.8632C16.5167 11.7037 16.771 8.99057 15.8605 6.67728L15.8728 6.68549C16.3445 7.02387 16.7772 7.44633 17.1443 7.95697C18.6331 9.99955 18.549 12.7804 16.9802 14.7246Z" fill="white"/>
<path d="M8.87988 8.63379C8.40615 8.63379 8.03906 9.00088 8.03906 9.4541C8.03906 9.90732 8.40615 10.2744 8.87988 10.2744C9.3126 10.2744 9.67969 9.90732 9.67969 9.4541C9.67969 9.00088 9.3126 8.63379 8.87988 8.63379Z" fill="white"/>
</svg>
